<svg width="48" height="48" viewBox="0 0 48 48" fill="none" xmlns="http://www.w3.org/2000/svg">
<rect width="48" height="48" rx="8" fill="black" style="fill:black;fill-opacity:1;"/>
<g clip-path="url(#clip0_577_4374)">
<path d="M17.9401 21.3655C20.0097 21.3655 21.6874 19.6806 21.6874 17.6021C21.6874 15.5236 20.0097 13.8386 17.9401 13.8386C15.8705 13.8386 14.1927 15.5236 14.1927 17.6021C14.1927 19.6806 15.8705 21.3655 17.9401 21.3655Z" fill="white" style="fill:white;fill-opacity:1;"/>
<path d="M24.0963 16.5269C26.1659 16.5269 27.8436 14.8419 27.8436 12.7634C27.8436 10.6849 26.1659 9 24.0963 9C22.0267 9 20.349 10.6849 20.349 12.7634C20.349 14.8419 22.0267 16.5269 24.0963 16.5269Z" fill="white" style="fill:white;fill-opacity:1;"/>
<path d="M30.2527 21.3655C32.3223 21.3655 34 19.6806 34 17.6021C34 15.5236 32.3223 13.8386 30.2527 13.8386C28.1831 13.8386 26.5054 15.5236 26.5054 17.6021C26.5054 19.6806 28.1831 21.3655 30.2527 21.3655Z" fill="white" style="fill:white;fill-opacity:1;"/>
<path d="M23.8394 28.7849C23.0899 27.1397 20.1831 21.8386 14 22.3602V32.4462C14 32.4462 22.1531 32.4462 22.9882 38.9999H24.6852C25.5203 32.4408 33.6734 32.4462 33.6734 32.4462V22.3602C27.4904 21.8386 24.5835 27.1397 23.834 28.7849H23.8394Z" fill="white" style="fill:white;fill-opacity:1;"/>
</g>
<defs>
<clipPath id="clip0_577_4374">
<rect width="20" height="30" fill="white" style="fill:white;fill-opacity:1;" transform="translate(14 9)"/>
</clipPath>
</defs>
</svg>
